<?xml version="1.0" encoding="UTF-8" standalone="no"?>
<svg
   width="249.42709"
   zoomAndPan="magnify"
   viewBox="0 0 187.07032 186.52344"
   height="248.69792"
   preserveAspectRatio="xMidYMid"
   version="1.2"
   id="svg24"
   sodipodi:docname="logo.svg"
   inkscape:version="1.4.2 (2aeb623e1d, 2025-05-12)"
   xmlns:inkscape="http://www.inkscape.org/namespaces/inkscape"
   xmlns:sodipodi="http://sodipodi.sourceforge.net/DTD/sodipodi-0.dtd"
   xmlns="http://www.w3.org/2000/svg"
   xmlns:svg="http://www.w3.org/2000/svg">
  <sodipodi:namedview
     id="namedview24"
     pagecolor="#ffffff"
     bordercolor="#000000"
     borderopacity="0.25"
     inkscape:showpageshadow="2"
     inkscape:pageopacity="0.0"
     inkscape:pagecheckerboard="0"
     inkscape:deskcolor="#d1d1d1"
     showgrid="false"
     inkscape:zoom="1.622"
     inkscape:cx="117.75586"
     inkscape:cy="124.22935"
     inkscape:window-width="1850"
     inkscape:window-height="1016"
     inkscape:window-x="0"
     inkscape:window-y="0"
     inkscape:window-maximized="1"
     inkscape:current-layer="ebbe61810f"
     inkscape:clip-to-page="false" />
  <defs
     id="defs12">
    <clipPath
       id="b084b3c798">
      <path
         d="m 162.12109,94.234375 h 28.47266 V 280.86719 h -28.47266 z m 0,0"
         id="path1" />
    </clipPath>
    <clipPath
       id="eb550e283e">
      <path
         d="m 166.62109,94.234375 h 19.47266 c 2.48437,0 4.5,2.015625 4.5,4.5 V 276.26562 c 0,1.19141 -0.47266,2.33594 -1.31641,3.17969 -0.84375,0.84766 -1.98828,1.32031 -3.18359,1.32031 h -19.47266 c -2.48437,0 -4.5,-2.01562 -4.5,-4.5 V 98.734375 c 0,-2.484375 2.01563,-4.5 4.5,-4.5 z m 0,0"
         id="path2" />
    </clipPath>
    <clipPath
       id="325c159776">
      <path
         d="m 194.29297,94.234375 h 28.47265 V 280.86719 h -28.47265 z m 0,0"
         id="path3" />
    </clipPath>
    <clipPath
       id="7e3e2fee73">
      <path
         d="m 198.04297,94.234375 h 20.97265 c 0.9961,0 1.94922,0.394531 2.65235,1.097656 0.70312,0.703125 1.09765,1.65625 1.09765,2.652344 V 277.01562 c 0,0.9961 -0.39453,1.94922 -1.09765,2.65235 -0.70313,0.70312 -1.65625,1.09765 -2.65235,1.09765 h -20.97265 c -0.99219,0 -1.94531,-0.39453 -2.64844,-1.09765 -0.70312,-0.70313 -1.10156,-1.65625 -1.10156,-2.65235 V 97.984375 c 0,-0.996094 0.39844,-1.949219 1.10156,-2.652344 0.70313,-0.703125 1.65625,-1.097656 2.64844,-1.097656 z m 0,0"
         id="path4" />
    </clipPath>
    <clipPath
       id="cf63c2e862">
      <path
         d="m 129.41797,147.35547 h 28.47265 v 133.46875 h -28.47265 z m 0,0"
         id="path5" />
    </clipPath>
    <clipPath
       id="3178fe1de5">
      <path
         d="m 133.16797,147.35547 h 20.97265 c 0.99219,0 1.94922,0.39844 2.65235,1.10156 0.70312,0.70313 1.09765,1.65625 1.09765,2.64844 v 125.91015 c 0,0.9961 -0.39453,1.94922 -1.09765,2.65235 -0.70313,0.70312 -1.66016,1.09765 -2.65235,1.09765 h -20.97265 c -0.9961,0 -1.94922,-0.39453 -2.65235,-1.09765 -0.70312,-0.70313 -1.09765,-1.65625 -1.09765,-2.65235 V 151.10547 c 0,-0.99219 0.39453,-1.94531 1.09765,-2.64844 0.70313,-0.70312 1.65625,-1.10156 2.65235,-1.10156 z m 0,0"
         id="path6" />
    </clipPath>
    <clipPath
       id="0b27f1aa42">
      <path
         d="m 98.945312,253.57812 h 35.464848 v 27.17969 H 98.945312 Z m 0,0"
         id="path7" />
    </clipPath>
    <clipPath
       id="4a6a060a1f">
      <path
         d="m 98.945312,277.00781 v -19.67969 c 0,-0.99609 0.398438,-1.94921 1.101568,-2.65234 0.70312,-0.70312 1.65625,-1.09766 2.64843,-1.09766 h 27.9336 c 0.99218,0 1.94921,0.39454 2.65234,1.09766 0.70312,0.70313 1.09766,1.65625 1.09766,2.65234 v 19.67969 c 0,0.9961 -0.39454,1.94922 -1.09766,2.65235 -0.70313,0.70312 -1.66016,1.09765 -2.65234,1.09765 h -27.9336 c -0.99218,0 -1.94531,-0.39453 -2.64843,-1.09765 -0.70313,-0.70313 -1.101568,-1.65625 -1.101568,-2.65235 z m 0,0"
         id="path8" />
    </clipPath>
    <clipPath
       id="9096526a96">
      <path
         d="m 226.73047,147.35547 h 28.47265 v 133.46875 h -28.47265 z m 0,0"
         id="path9" />
    </clipPath>
    <clipPath
       id="ab0e715b5c">
      <path
         d="m 230.48047,147.35547 h 20.97265 c 0.9961,0 1.94922,0.39844 2.65235,1.10156 0.70312,0.70313 1.09765,1.65625 1.09765,2.64844 v 125.91015 c 0,0.9961 -0.39453,1.94922 -1.09765,2.65235 -0.70313,0.70312 -1.65625,1.09765 -2.65235,1.09765 h -20.97265 c -0.9961,0 -1.94922,-0.39453 -2.65235,-1.09765 -0.70312,-0.70313 -1.09765,-1.65625 -1.09765,-2.65235 V 151.10547 c 0,-0.99219 0.39453,-1.94531 1.09765,-2.64844 0.70313,-0.70312 1.65625,-1.10156 2.65235,-1.10156 z m 0,0"
         id="path10" />
    </clipPath>
    <clipPath
       id="3ee3e8ae48">
      <path
         d="m 250.58594,253.57812 h 35.46484 v 27.17969 h -35.46484 z m 0,0"
         id="path11" />
    </clipPath>
    <clipPath
       id="93c6dcc5ee">
      <path
         d="m 250.58594,277.00781 v -19.67969 c 0,-0.99609 0.39453,-1.94921 1.09765,-2.65234 0.70313,-0.70312 1.65625,-1.09766 2.65235,-1.09766 h 27.92968 c 0.9961,0 1.94922,0.39454 2.65235,1.09766 0.70312,0.70313 1.09765,1.65625 1.09765,2.65234 v 19.67969 c 0,0.9961 -0.39453,1.94922 -1.09765,2.65235 -0.70313,0.70312 -1.65625,1.09765 -2.65235,1.09765 h -27.92968 c -0.9961,0 -1.94922,-0.39453 -2.65235,-1.09765 -0.70312,-0.70313 -1.09765,-1.65625 -1.09765,-2.65235 z m 0,0"
         id="path12" />
    </clipPath>
  </defs>
  <g
     id="ebbe61810f"
     transform="translate(-98.945312,-94.234375)">
    <g
       clip-rule="nonzero"
       clip-path="url(#b084b3c798)"
       id="g14">
      <g
         clip-rule="nonzero"
         clip-path="url(#eb550e283e)"
         id="g13">
        <path
           style="fill:#3e3c41;fill-opacity:1;fill-rule:nonzero;stroke:none"
           d="m 162.12109,94.234375 h 28.47266 V 280.75391 h -28.47266 z m 0,0"
           id="path13" />
      </g>
    </g>
    <g
       clip-rule="nonzero"
       clip-path="url(#325c159776)"
       id="g16">
      <g
         clip-rule="nonzero"
         clip-path="url(#7e3e2fee73)"
         id="g15">
        <path
           style="fill:#3e3c41;fill-opacity:1;fill-rule:nonzero;stroke:none"
           d="m 194.29297,94.234375 h 28.47265 V 280.75391 h -28.47265 z m 0,0"
           id="path14" />
      </g>
    </g>
    <g
       clip-rule="nonzero"
       clip-path="url(#cf63c2e862)"
       id="g18">
      <g
         clip-rule="nonzero"
         clip-path="url(#3178fe1de5)"
         id="g17">
        <path
           style="fill:#3e3c41;fill-opacity:1;fill-rule:nonzero;stroke:none"
           d="m 129.41797,147.35547 h 28.47265 v 133.35937 h -28.47265 z m 0,0"
           id="path16" />
      </g>
    </g>
    <g
       clip-rule="nonzero"
       clip-path="url(#0b27f1aa42)"
       id="g20">
      <g
         clip-rule="nonzero"
         clip-path="url(#4a6a060a1f)"
         id="g19">
        <path
           style="fill:#3e3c41;fill-opacity:1;fill-rule:nonzero;stroke:none"
           d="m 98.945312,280.75781 v -27.17969 h 35.464848 v 27.17969 z m 0,0"
           id="path18" />
      </g>
    </g>
    <g
       clip-rule="nonzero"
       clip-path="url(#9096526a96)"
       id="g22">
      <g
         clip-rule="nonzero"
         clip-path="url(#ab0e715b5c)"
         id="g21">
        <path
           style="fill:#3e3c41;fill-opacity:1;fill-rule:nonzero;stroke:none"
           d="m 226.73047,147.35547 h 28.47265 v 133.35937 h -28.47265 z m 0,0"
           id="path20" />
      </g>
    </g>
    <g
       clip-rule="nonzero"
       clip-path="url(#3ee3e8ae48)"
       id="g24">
      <g
         clip-rule="nonzero"
         clip-path="url(#93c6dcc5ee)"
         id="g23">
        <path
           style="fill:#3e3c41;fill-opacity:1;fill-rule:nonzero;stroke:none"
           d="m 250.58594,280.75781 v -27.17969 h 35.46484 v 27.17969 z m 0,0"
           id="path22" />
      </g>
    </g>
  </g>
</svg>
